# xmcd CD database file
# Copyright (C) 1993-1998 Ti Kan
# 
# Track frame offsets:
#     150
#     17665
#     38687
#     58035
# 
# Disc length: 997 seconds
# 
# Revision: 1
# Processed by: cddbd v1.4b41PL1 Copyright (c) Steve Scherf et al.
# Submitted via: DiscPlay 4.0.4
# 
DISCID=2803e304
DTITLE=Fabio Volo - Io e Te
DYEAR=1900
DGENRE=
TTITLE0=Io e Te(dance authority)
TTITLE1=Io e  te(d.j. Profxor mix)
TTITLE2=Prendimi con te(dance authority mix)
TTITLE3=Prendimi con te(real d.j. mix)
EXTD=
EXTT0=
EXTT1=
EXTT2=
EXTT3=
PLAYORDER=
